/* XPM */
static char *left[]={
"15 14 56 1",
". c None",
"h c #000000",
"Z c #000101",
"e c #010304",
"1 c #06101d",
"R c #071728",
"0 c #07182a",
"I c #071c2c",
"z c #081c2d",
"J c #081e31",
"A c #0a121f",
"t c #0a1929",
"V c #0a263b",
"W c #0a273b",
"w c #0e97bf",
"E c #0ea0c5",
"U c #0f5d7e",
"# c #105375",
"l c #114760",
"x c #1197b9",
"a c #124c6d",
"u c #124d6f",
"T c #1290b5",
"X c #135476",
"C c #1390b4",
"Q c #14839f",
"m c #155474",
"K c #155678",
"S c #155a7a",
"M c #159abc",
"B c #17587a",
"P c #178eac",
"i c #194a6a",
"o c #19b3ce",
"f c #1b4b6a",
"c c #1b4f6f",
"Y c #1ca2c3",
"b c #20374f",
"N c #2294b1",
"F c #22bad1",
"O c #2a98b3",
"H c #2cc7d5",
"D c #3cd7e1",
"G c #43d5de",
"L c #48dfe9",
"y c #58acc5",
"k c #59c3da",
"n c #71d1e0",
"s c #80c2db",
"d c #819eba",
"p c #9ddeee",
"q c #cdebf6",
"v c #ddeff8",
"g c #e2f0f9",
"r c #fdfafd",
"j c #fdfcfd",
".......#.......",
"......ab.......",
".....cde.......",
"....fdgh.......",
"...idjkl#####..",
"..mdjnopqrqst..",
".udvkowwxxxyz..",
".ABCDEwFGGHFI..",
"..JKCLEMNOPQh..",
"...RSTDUVWWhh..",
"....RXYZ.......",
".....0#h.......",
"......1h.......",
".......h......."};
