/* XPM */
static char *right[]={
"15 14 50 1",
". c None",
"V c #010001",
"C c #03060c",
"R c #050b12",
"P c #05151e",
"K c #060f19",
"N c #06141d",
"O c #06141f",
"M c #071620",
"U c #0b293e",
"L c #0d324c",
"# c #0d3652",
"Q c #0e5775",
"q c #0e8fb6",
"p c #0e94b9",
"o c #0e97bf",
"l c #0e9ec3",
"n c #0eadcb",
"y c #0fa0c4",
"B c #106589",
"s c #10698f",
"S c #114560",
"a c #124d6f",
"I c #1299bb",
"T c #144059",
"r c #14a5c9",
"J c #15c1da",
"D c #18425f",
"x c #1bbad1",
"A c #1ca2c3",
"H c #1f95b2",
"c c #254a64",
"G c #2695b1",
"F c #2b91ae",
"b c #337f9e",
"v c #40d1db",
"w c #46dbe6",
"z c #48dfe9",
"k c #54bdd7",
"m c #5fc0d8",
"E c #64a3bd",
"u c #8fcce2",
"g c #a0cbdf",
"e c #a7dcec",
"j c #bfdfee",
"t c #d3e5f0",
"d c #dfeff8",
"h c #e0f1fb",
"i c #eff3fc",
"f c #ffffff",
".......#.......",
".......a#......",
".......ab#.....",
".......cdb#....",
"..aaaaccefb#...",
"..aghihjklfb#..",
"..aimnopqords#.",
"..ctuvwxoyzABC.",
"..DEFGHIJzABK..",
"..LMNOPQzABR...",
".......SABR....",
".......TBK.....",
".......UC......",
".......V......."};
