/* XPM */
static char * default_xpm[] = {
"32 32 2 1  XPMEXT",
" 	c None",
".	c #000000",
"                                ",
"                                ",
"                                ",
"                                ",
"  ...........................   ",
"  ...........................   ",
"  ..                       ..   ",
"  ..                       ..   ",
"  ..                       ..   ",
"  ..                       ..   ",
"  ..                       ..   ",
"  ..                       ..   ",
"  ..                       ..   ",
"  ..                       ..   ",
"  ..                       ..   ",
"  ..                       ..   ",
"  ..                       ..   ",
"  ..                       ..   ",
"  ..                       ..   ",
"  ..                       ..   ",
"  ..                       ..   ",
"  ..                       ..   ",
"  ..                       ..   ",
"  ..                       ..   ",
"  ..                       ..   ",
"  ..                       ..   ",
"  ...........................   ",
"  ...........................   ",
"                                ",
"                                ",
"                                ",
"                                ",
"XPMEXT Ports",
"0 -2 15",
"0 32 15",
"XPMENDEXT"
};
