/* XPM */
static char * intens_xpm[] = {
"16 16 4 1",
" 	c None",
".	c #1717E0",
"+	c #FFFF00",
"@	c #DF0303",
"                ",
"                ",
"                ",
"                ",
"   .   +   @    ",
"  ..  ++  @@    ",
" ... +++ @@@    ",
"....++++@@@@    ",
"    ....++++@@@@",
"    ... +++ @@@ ",
"    ..  ++  @@  ",
"    .   +   @   ",
"                ",
"                ",
"                ",
"                "};
