/* XPM */
static char * plus_xpm[] = {
"16 15 76 1",
" 	c None",
".	c #000000",
"+	c #800000",
"@	c #008000",
"#	c #808000",
"$	c #000080",
"%	c #800080",
"&	c #008080",
"*	c #808080",
"=	c #C0DCC0",
"-	c #A6CAF0",
";	c #990000",
">	c #C40026",
",	c #FF6666",
"'	c #FF9999",
")	c #FFCCCC",
"!	c #53005D",
"~	c #815490",
"{	c #A586B3",
"]	c #D4BEDE",
"^	c #002856",
"/	c #003D84",
"(	c #5C6AA6",
"_	c #8F92C0",
":	c #CCCCFF",
"<	c #00416B",
"[	c #0063A4",
"}	c #5984BD",
"|	c #8FA7D1",
"1	c #C6D6F3",
"2	c #000088",
"3	c #0000AA",
"4	c #3399FF",
"5	c #8ECDF0",
"6	c #D9EEF9",
"7	c #244D0C",
"8	c #326C11",
"9	c #4DA619",
"0	c #8CC06C",
"a	c #B3D39B",
"b	c #445900",
"c	c #5F7D00",
"d	c #92C000",
"e	c #B8D26B",
"f	c #D1DF9C",
"g	c #50501E",
"h	c #666633",
"i	c #999966",
"j	c #CCCC99",
"k	c #FFFFD6",
"l	c #797000",
"m	c #AA9D00",
"n	c #E8D258",
"o	c #FFEB00",
"p	c #FFF09E",
"q	c #6E4700",
"r	c #9A6400",
"s	c #FF6600",
"t	c #FF9900",
"u	c #F7B357",
"v	c #FFCC33",
"w	c #56350D",
"x	c #6E4A20",
"y	c #A67E4E",
"z	c #C79F6D",
"A	c #FFCC99",
"B	c #E6E6E6",
"C	c #D9D9D9",
"D	c #BFBFBF",
"E	c #A6A6A6",
"F	c #999999",
"G	c #8C8C8C",
"H	c #666666",
"I	c #404040",
"J	c #6F8C9C",
"K	c #FFFFFF",
"                ",
"     ......J    ",
"    .KKKKKK.J   ",
"   .K666666D.J  ",
"  .K66689666D.J ",
"  .K66698D66D.J ",
"  .K68989896D.J ",
"  .K6989898DD.J ",
"  .K66D89DDDD.J ",
"  .K66698D66D.J ",
"   .D666DD6D.JJ ",
"    .DDDDDD.JJ  ",
"     ......JJ   ",
"      JJJJJJ    ",
"                "};
