/* XPM */
static char * semafor_xpm[] = {
"64 32 4 1",
" 	c None",
".	c #1717E0",
"+	c #FFFF00",
"@	c #DF0303",
"               .               +               @                ",
"              ..              ++              @@                ",
"             ...             +++             @@@                ",
"            ....            ++++            @@@@                ",
"           .....           +++++           @@@@@                ",
"          ......          ++++++          @@@@@@                ",
"         .......         +++++++         @@@@@@@                ",
"        ........        ++++++++        @@@@@@@@                ",
"       .........       +++++++++       @@@@@@@@@                ",
"      ..........      ++++++++++      @@@@@@@@@@                ",
"     ...........     +++++++++++     @@@@@@@@@@@                ",
"    ............    ++++++++++++    @@@@@@@@@@@@                ",
"   .............   +++++++++++++   @@@@@@@@@@@@@                ",
"  ..............  ++++++++++++++  @@@@@@@@@@@@@@                ",
" ............... +++++++++++++++ @@@@@@@@@@@@@@@                ",
"................++++++++++++++++@@@@@@@@@@@@@@@@                ",
"                ................++++++++++++++++@@@@@@@@@@@@@@@@",
"                ............... +++++++++++++++ @@@@@@@@@@@@@@@ ",
"                ..............  ++++++++++++++  @@@@@@@@@@@@@@  ",
"                .............   +++++++++++++   @@@@@@@@@@@@@   ",
"                ............    ++++++++++++    @@@@@@@@@@@@    ",
"                ...........     +++++++++++     @@@@@@@@@@@     ",
"                ..........      ++++++++++      @@@@@@@@@@      ",
"                .........       +++++++++       @@@@@@@@@       ",
"                ........        ++++++++        @@@@@@@@        ",
"                .......         +++++++         @@@@@@@         ",
"                ......          ++++++          @@@@@@          ",
"                .....           +++++           @@@@@           ",
"                ....            ++++            @@@@            ",
"                ...             +++             @@@             ",
"                ..              ++              @@              ",
"                .               +               @               "};
