/* XPM */
static char * top_left_corner_xpm[] = {
"8 8 3 1",
" 	c grey90",
".	c grey32",
"X	s None	c None",
"        ",
" .......",
" .XXXXXX",
" .X     ",
" .X ....",
" .X .XXX",
" .X .X  ",
" .X .X ."};
