/* XPM */
static char * top_right_corner_xpm[] = {
"8 8 3 1",
" 	c grey90",
".	c grey32",
"X	s None	c None",
"        ",
"....... ",
"XXXXXX. ",
"     X. ",
".... X. ",
"XXX. X. ",
"  X. X. ",
". X. X. "};
